<svg xmlns="http://www.w3.org/2000/svg" width="142" height="26" viewBox="0 0 142 26" fill="none">
  <path d="M13.3644 25.9998C5.90482 25.9596 -0.041113 20.1083 0.000214129 12.8519C0.0415412 5.72597 6.08563 -0.029992 13.4832 0.000117592C20.8911 0.0302272 26.8473 5.88153 26.8112 13.0878C26.775 20.2137 20.7051 26.0399 13.3644 25.9998ZM1.87543 12.9523C1.87027 19.1699 7.02582 24.2133 13.3902 24.2133C19.7701 24.2133 24.9359 19.19 24.9359 12.9874C24.9359 6.77479 19.7649 1.7515 13.385 1.76655C7.02582 1.78662 1.8806 6.78984 1.87543 12.9523Z" fill="#FF6975"/>
  <path d="M14.4699 6.9454C14.4699 6.37169 13.9923 5.90662 13.4032 5.90662C12.814 5.90662 12.3364 6.37169 12.3364 6.9454V18.1111C12.3364 18.6848 12.814 19.1498 13.4032 19.1498C13.9923 19.1498 14.4699 18.6848 14.4699 18.1111V6.9454Z" fill="#FF6975"/>
  <path d="M17.5384 14.0763L20.1575 17.1826C20.7878 17.9304 20.2195 19.0544 19.2225 19.0243H19.207C19.0417 19.0193 18.835 18.9089 18.7317 18.7835C17.5332 17.3181 16.3451 15.8428 15.1363 14.3423C14.878 14.0261 14.8883 13.5745 15.1518 13.2634C16.3399 11.8733 17.5022 10.5083 18.6852 9.15841C18.804 9.02292 19.0623 8.95267 19.2586 8.94263H19.2793C20.2092 8.9075 20.7413 9.96134 20.1472 10.6539L17.5436 13.705C17.4558 13.8104 17.4558 13.9659 17.5436 14.0713L17.5384 14.0763Z" fill="#FF6975"/>
  <path d="M9.27297 14.0763L6.65386 17.1826C6.02362 17.9304 6.59187 19.0544 7.58889 19.0243H7.60439C7.76969 19.0193 7.97633 18.9089 8.07965 18.7835C9.27813 17.3181 10.4663 15.8428 11.6751 14.3423C11.9334 14.0261 11.9231 13.5745 11.6596 13.2634C10.4715 11.8733 9.30913 10.5083 8.12614 9.15841C8.00732 9.02292 7.74903 8.95267 7.55273 8.94263H7.53206C6.6022 8.9075 6.07012 9.96134 6.66419 10.6539L9.2678 13.705C9.35562 13.8104 9.35562 13.9659 9.2678 14.0713L9.27297 14.0763Z" fill="#FF6975"/>
  <path d="M44.4525 18.4523L41.1825 13.5594V17.4687C41.1825 18.4472 40.3663 19.2401 39.359 19.2401C38.3516 19.2401 37.5354 18.4472 37.5354 17.4687V8.14975C37.5354 7.17118 38.3516 6.3783 39.359 6.3783C40.3663 6.3783 41.1825 7.17118 41.1825 8.14975V11.798L44.1684 7.1762C44.4887 6.67939 45.0518 6.3783 45.651 6.3783C47.0458 6.3783 47.8827 7.8888 47.113 9.01791L44.6695 12.606L47.4177 16.5353C48.2185 17.6845 47.3712 19.2351 45.9455 19.2351C45.3411 19.2351 44.778 18.939 44.4525 18.4472V18.4523Z" fill="#4F3E41"/>
  <path d="M56.4581 10.5936V11.0704C56.4581 11.803 55.8485 12.3952 55.0943 12.3952C53.8493 12.3952 53.3276 12.9271 53.3276 14.1917V17.5289C53.3276 18.4723 52.5424 19.2401 51.566 19.2401C50.5948 19.2401 49.8044 18.4773 49.8044 17.5289V10.7241C49.8044 9.94627 50.4553 9.31898 51.2509 9.31898C51.8088 9.31898 52.3151 9.6251 52.5527 10.1119L52.7077 10.418C53.4257 9.61004 54.3039 9.2688 55.5231 9.2688C56.3755 9.42938 56.4529 10.0918 56.4529 10.5886L56.4581 10.5936Z" fill="#4F3E41"/>
  <path d="M74.6318 14.277C74.6318 17.3683 72.4001 19.5763 69.2747 19.5763C68.3501 19.5763 67.508 19.3405 66.7848 18.9189V21.137C66.7848 22.0704 66.0047 22.8282 65.0439 22.8282C64.083 22.8282 63.303 22.0704 63.303 21.137V10.7743C63.303 9.97136 63.9745 9.31899 64.8011 9.31899C65.3487 9.31899 65.8549 9.61005 66.1184 10.0818L66.1339 10.1069C66.9759 9.39928 68.0556 8.9928 69.2696 8.9928C72.3949 8.9928 74.6266 11.1858 74.6266 14.277H74.6318ZM71.0931 14.277C71.0931 12.9723 70.1219 12.0088 68.8046 12.0088C67.4873 12.0088 66.5162 12.9773 66.5162 14.277C66.5162 15.5768 67.4873 16.5503 68.8046 16.5503C70.1219 16.5503 71.0931 15.5818 71.0931 14.277Z" fill="#4F3E41"/>
  <path d="M82.985 17.559V17.9304C82.985 18.653 82.3806 19.2402 81.6367 19.2402H80.5673C78.3099 19.2402 76.9357 17.9003 76.9357 15.6922V11.9486H75.6546C75.3291 11.9486 75.0657 11.6927 75.0657 11.3765C75.0657 11.231 75.1225 11.0905 75.2258 10.9851L79.4928 6.56902C79.5858 6.46865 79.7201 6.41345 79.8596 6.41345C80.1386 6.41345 80.3659 6.63426 80.3659 6.90524V9.31401H81.5747C82.3237 9.31401 82.9282 9.90115 82.9282 10.6288C82.9282 11.3565 82.3237 11.9436 81.5747 11.9436H80.4537V15.1001C80.4537 15.8127 80.8928 16.2392 81.6367 16.2392C82.3806 16.2392 82.985 16.8264 82.985 17.549V17.559Z" fill="#4F3E41"/>
  <path d="M83.9355 14.277C83.9355 11.2008 86.3325 8.9928 89.6645 8.9928C92.9965 8.9928 95.3935 11.2059 95.3935 14.277C95.3935 17.3482 92.9862 19.5613 89.6645 19.5613C86.3429 19.5613 83.9355 17.3382 83.9355 14.277ZM89.6645 16.4951C90.9457 16.4951 91.8652 15.5918 91.8652 14.277C91.8652 12.9623 90.9457 12.059 89.6645 12.059C88.3834 12.059 87.4638 12.9623 87.4638 14.277C87.4638 15.5918 88.3834 16.4951 89.6645 16.4951Z" fill="#4F3E41"/>
  <path d="M110.023 6.3783C109.873 6.3783 109.729 6.4335 109.615 6.52884L103.587 11.6676V7.03067C103.587 6.66936 103.287 6.3783 102.915 6.3783C102.543 6.3783 102.243 6.66936 102.243 7.03067V18.5928C102.243 18.9541 102.543 19.2451 102.915 19.2451C103.287 19.2451 103.587 18.9541 103.587 18.5928V13.5946L110.101 19.0996C110.214 19.195 110.354 19.2451 110.504 19.2451C111.072 19.2451 111.335 18.5627 110.912 18.2013L104.398 12.626L110.431 7.43213C110.855 7.0658 110.591 6.38331 110.023 6.38331V6.3783Z" fill="#4F3E41"/>
  <path d="M114.523 19.2401C114.89 19.2401 115.185 18.9491 115.185 18.5928L115.159 7.01563C115.159 6.65933 114.859 6.37329 114.497 6.37329C114.13 6.37329 113.836 6.66435 113.836 7.02065L113.862 18.5978C113.862 18.9541 114.161 19.2401 114.523 19.2401Z" fill="#4F3E41"/>
  <path d="M126.353 14.794C126.353 16.9869 125.103 18.2917 123.016 18.2917C120.929 18.2917 119.678 16.9819 119.678 14.794V9.39429C119.678 9.03799 119.384 8.75195 119.017 8.75195C118.65 8.75195 118.356 9.03799 118.356 9.39429V14.8592C118.356 17.7146 120.185 19.5663 123.021 19.5663C125.857 19.5663 127.686 17.7196 127.686 14.8592V9.39429C127.686 9.03799 127.391 8.75195 127.024 8.75195C126.658 8.75195 126.363 9.03799 126.363 9.39429V14.794H126.353Z" fill="#4F3E41"/>
  <path d="M136.447 8.55623C134.726 8.55623 133.197 9.24875 132.175 10.4531L132.149 7.02063C132.149 6.66434 131.849 6.3783 131.482 6.3783C131.116 6.3783 130.816 6.66936 130.816 7.02565L130.842 18.643C130.842 18.9742 131.121 19.2451 131.462 19.2451C131.792 19.2451 132.066 18.9892 132.082 18.668L132.123 17.6142C133.151 18.8537 134.696 19.5713 136.447 19.5713C139.665 19.5713 142 17.2579 142 14.0663C142 10.8747 139.665 8.56124 136.447 8.56124V8.55623ZM132.144 14.0613C132.144 11.6475 133.977 9.83087 136.416 9.83087C138.854 9.83087 140.667 11.6124 140.667 14.0613C140.667 16.5102 138.88 18.2917 136.416 18.2917C133.952 18.2917 132.144 16.4751 132.144 14.0613Z" fill="#4F3E41"/>
  <path d="M58.2249 6.88514C58.571 6.54892 58.9946 6.3783 59.5009 6.3783C60.0071 6.3783 60.4307 6.54892 60.7768 6.88514C61.1229 7.22137 61.2986 7.63788 61.2986 8.12466C61.2986 8.61143 61.1229 9.02794 60.7768 9.36417C60.4307 9.70039 60.0071 9.87101 59.5009 9.87101C58.9946 9.87101 58.571 9.70039 58.2249 9.36417C57.8788 9.02794 57.7031 8.61645 57.7031 8.12466C57.7031 7.63286 57.8788 7.22137 58.2249 6.88514ZM57.7754 12.6712C57.7754 12.1644 57.9046 11.7629 58.1681 11.4518C58.4263 11.1457 58.8706 10.9951 59.506 10.9951C60.1414 10.9951 60.5805 11.1507 60.844 11.4518C61.1023 11.7579 61.2366 12.1644 61.2366 12.6712V17.564C61.2366 18.0709 61.1074 18.4774 60.844 18.7835C60.5857 19.0896 60.1363 19.2401 59.506 19.2401C58.8758 19.2401 58.4315 19.0846 58.1681 18.7835C57.9098 18.4774 57.7754 18.0709 57.7754 17.564V12.6712Z" fill="#4F3E41"/>
</svg>