<svg xmlns="http://www.w3.org/2000/svg" width="12" height="12" viewBox="0 0 12 12" fill="none">
  <path fill-rule="evenodd" clip-rule="evenodd" d="M8.49096 8.29278C6.66313 9.75672 3.98758 9.6415 2.2932 7.94712C0.475184 6.1291 0.475184 3.18152 2.2932 1.36351C4.11121 -0.454503 7.05879 -0.454503 8.8768 1.36351C10.5712 3.05789 10.6864 5.73344 9.22247 7.56127L12.7782 11.117C12.9802 11.319 12.9802 11.6465 12.7782 11.8485C12.5762 12.0505 12.2487 12.0505 12.0467 11.8485L8.49096 8.29278ZM3.02471 7.2156C1.6107 5.80159 1.6107 3.50903 3.02471 2.09502C4.43872 0.681011 6.73128 0.681011 8.14529 2.09502C9.55826 3.50799 9.5593 5.79823 8.1484 7.21249L8.14528 7.21559L8.14218 7.21871C6.72792 8.62961 4.43768 8.62858 3.02471 7.2156Z" fill="#525252"/>
</svg>